<svg width="100" height="100" viewBox="0 0 100 100" fill="none" xmlns="http://www.w3.org/2000/svg">
<g clip-path="url(#clip0_18_14)">
<path d="M50 100C77.6142 100 100 77.6142 100 50C100 22.3858 77.6142 0 50 0C22.3858 0 0 22.3858 0 50C0 77.6142 22.3858 100 50 100Z" fill="white"/>
<path d="M50 100C77.6144 100 100 77.6144 100 50C100 22.3857 77.6144 0 50 0C22.3857 0 0 22.3857 0 50C0 70.2862 12.0811 87.7506 29.441 95.5912C29.4643 95.0503 29.4905 94.5544 29.513 94.1288C29.5436 93.5491 29.5673 93.1006 29.5673 92.8484C29.5673 91.3463 30.5889 83.8941 30.5889 83.8941L36.8391 58.2331C35.8775 56.6706 35.1562 53.3653 35.1562 50.8412C35.1562 39.1828 41.6466 36.6587 45.6131 36.6587C50.6609 36.6587 51.8028 42.1275 51.8028 46.1538C51.8028 48.2834 50.6981 51.6172 49.5612 55.0478C48.3563 58.6837 47.1153 62.4284 47.1153 64.9638C47.1153 69.8919 51.9831 72.3556 55.3484 72.3556C64.2428 72.3556 72.4159 61.1778 72.4159 50C72.4159 38.8222 67.1875 25.3004 50.06 25.3004C32.9328 25.3004 25.2404 38.3413 25.2404 48.3172C25.2404 55.0481 27.7644 59.9759 29.0265 60.8172C29.387 61.1378 30 62.1275 29.5673 63.5216C29.1346 64.9159 28.3454 68.0287 28.0048 69.4109C27.9648 69.7316 27.5842 70.2763 26.3822 69.8919C24.8798 69.4109 15.3245 63.4012 15.3245 48.3172C15.3245 33.2331 27.1635 15.6851 50.06 15.6851C72.9569 15.6851 84.6756 31.0697 84.6756 50C84.6756 68.9303 69.3509 81.0097 57.6922 81.0097C48.3653 81.0097 44.7116 76.8428 44.0506 74.7597L40.5047 88.2812C39.6675 90.5244 38.1059 94.5563 36.18 98.0656C40.5691 99.3253 45.2056 100 50 100Z" fill="#795D41"/>
</g>
<defs>
<clipPath id="clip0_18_14">
<rect width="100" height="100" fill="white"/>
</clipPath>
</defs>
</svg>
