<svg width="100" height="100" viewBox="0 0 100 100" fill="none" xmlns="http://www.w3.org/2000/svg">
<path d="M50 93.75C74.1625 93.75 93.75 74.1625 93.75 50C93.75 25.8375 74.1625 6.25 50 6.25C25.8375 6.25 6.25 25.8375 6.25 50C6.25 74.1625 25.8375 93.75 50 93.75Z" fill="#795D41"/>
<path d="M71.8331 31.9025C72.2225 29.3854 69.8294 27.3986 67.5912 28.3812L23.0151 47.9525C21.4101 48.6572 21.5275 51.0884 23.1921 51.6184L32.3847 54.5459C34.1394 55.1047 36.0391 54.8156 37.5712 53.7572L58.2969 39.4384C58.9219 39.0066 59.6031 39.8953 59.0691 40.4456L44.1503 55.8269C42.7031 57.3191 42.9903 59.8475 44.7312 60.9391L61.4344 71.4134C63.3078 72.5881 65.7178 71.4081 66.0681 69.1441L71.8331 31.9025Z" fill="white"/>
</svg>
