<svg width="100" height="100" viewBox="0 0 100 100" fill="none" xmlns="http://www.w3.org/2000/svg">
<path d="M75 6.25H25C14.6447 6.25 6.25 14.6447 6.25 25V75C6.25 85.3553 14.6447 93.75 25 93.75H75C85.3553 93.75 93.75 85.3553 93.75 75V25C93.75 14.6447 85.3553 6.25 75 6.25Z" fill="#795D41"/>
<path d="M71.6353 57.294C70.9622 56.3806 70.8113 55.4559 71.1794 54.519C72.0972 52.0197 85.4669 36.144 79.8972 36.144C76.07 36.195 71.4675 36.144 67.7981 36.144C67.1172 36.31 66.6763 36.6675 66.4006 37.3947C64.255 42.3422 61.6294 48.3797 57.7816 52.2597C57.2753 52.6681 56.9597 52.6506 56.3828 52.4997C53.6838 49.6578 56.5619 39.9222 54.9203 36.0753C54.5969 35.3222 53.8888 34.9819 53.1641 34.7906C49.4997 33.9172 41.1303 34.4369 39.7647 36.195C39.3744 36.6975 39.32 36.9719 39.6016 37.0169C40.9028 37.2222 41.8238 37.7131 42.366 38.4897C43.3888 40.7419 44.1425 52.7387 41.1303 52.7387C38.1181 52.7387 33.261 40.965 31.9266 37.7012C31.5716 36.7184 30.6677 36.155 29.7152 35.9887L20.804 36.0569C19.2377 36.0569 18.3623 36.8294 18.9174 38.3862C23.5588 49.9072 33.7156 72.2387 49.2935 71.6797C50.8541 71.6797 53.5388 72.2787 54.7575 70.9259C56.4325 68.7037 54.3897 64.7462 57.2616 63.2372C57.986 62.8519 58.7369 63.1747 59.3591 63.6487C62.5538 66.0812 64.2497 70.3506 68.1894 71.6469C68.8819 71.875 69.4891 71.9322 70.01 71.8181L78.3356 71.6812C79.8813 71.6812 81.4038 70.9934 81.0841 69.1456C79.8703 65.1828 75.0338 61.1094 71.6353 57.294Z" fill="white"/>
</svg>
